<svg xmlns="http://www.w3.org/2000/svg" viewBox="0 0 180 180"><defs><style>.cls-1{fill:#fff;}</style></defs><g id="Layer_2" data-name="Layer 2"><g id="Layer_1-2" data-name="Layer 1"><path class="cls-1" d="M154.3,0H25.7A25.69,25.69,0,0,0,0,25.7V154.3A25.76,25.76,0,0,0,25.7,180H154.3A25.76,25.76,0,0,0,180,154.3V25.7A25.69,25.69,0,0,0,154.3,0ZM48,110.9a18.51,18.51,0,0,1-9.1-.4v.1a14.48,14.48,0,0,1-4.6-2.4,22.53,22.53,0,0,1-2.4-2.1h-.1v12.2a8.25,8.25,0,0,1-7.9,8.2H22.7V89c.1-10.9,9.1-18.9,17.7-20.2A21.39,21.39,0,0,1,48,110.9Zm58.2-33.1a8.41,8.41,0,0,0-5.6,2.4,30.37,30.37,0,0,0-5.5,6.9c-2.5,3.8-4.7,7.9-7.3,11.7-2.1,3-4.2,6-7.2,8.3a17.43,17.43,0,0,1-11.4,4.2H69v-9.1c2.9,0,5-1.5,6.8-3.4a46.59,46.59,0,0,0,5.9-8.1c2.7-4.2,5.1-8.6,8.2-12.6a25.59,25.59,0,0,1,8.2-7.5,16.94,16.94,0,0,1,8-2v9.2Zm42.1,33.5V91.4a17.68,17.68,0,0,0-.5-5.1c-1.5-4.3-4.3-7.2-8.8-8.3a11.68,11.68,0,0,0-11.9,3.6,11.14,11.14,0,0,0-3.2,8.3c.1,5.3,0,14.3,0,21.3h-9.1V53.3H116a8.39,8.39,0,0,1,7.9,8.2V73.8l2.5-2.2A16.54,16.54,0,0,1,138,68.5a21.55,21.55,0,0,1,18.8,16,20.74,20.74,0,0,1,.6,5v21.6h-9.1Z"/><path class="cls-1" d="M44.2,77.7C37,77.6,32,83.8,31.6,89.1c-.5,7.1,5.7,13.3,12.3,13.1a12.25,12.25,0,0,0,.3-24.5Z"/></g></g></svg>